<svg xmlns="http://www.w3.org/2000/svg" xmlns:xlink="http://www.w3.org/1999/xlink" width="500" zoomAndPan="magnify" viewBox="0 0 375 374.999991" height="500" preserveAspectRatio="xMidYMid meet" version="1.2"><g id="ae5f3cd7af"><path style=" stroke:none;fill-rule:evenodd;fill:#b5a8d5;fill-opacity:1;" d="M 0.00390625 187.5 L 93.753906 187.5 C 93.753906 239.269531 135.726562 281.242188 187.5 281.242188 L 187.5 374.984375 C 83.949219 374.984375 0.00390625 291.050781 0.00390625 187.5 Z M 0.00390625 187.5 "/><path style=" stroke:none;fill-rule:evenodd;fill:#4d55cc;fill-opacity:1;" d="M 374.996094 187.5 L 281.25 187.5 C 281.25 135.71875 239.277344 93.742188 187.5 93.742188 L 187.5 0 C 291.050781 0 374.996094 83.949219 374.996094 187.5 Z M 0.00390625 0 C 41.375 0 74.960938 33.585938 74.960938 74.949219 C 74.960938 116.316406 41.375 149.914062 0.00390625 149.914062 Z M 225.085938 281.242188 C 225.085938 239.878906 258.671875 206.292969 300.042969 206.292969 C 341.410156 206.292969 374.996094 239.878906 374.996094 281.242188 Z M 225.085938 281.242188 "/><path style=" stroke:none;fill-rule:evenodd;fill:#211c84;fill-opacity:1;" d="M 225.089844 375 C 225.089844 333.632812 258.675781 300.042969 300.046875 300.042969 C 341.414062 300.042969 375 333.632812 375 375 Z M 187.503906 131.015625 C 218.679688 131.015625 243.992188 156.328125 243.992188 187.503906 C 243.992188 218.679688 218.679688 243.992188 187.503906 243.992188 C 156.328125 243.992188 131.015625 218.679688 131.015625 187.503906 C 131.015625 156.328125 156.328125 131.015625 187.503906 131.015625 Z M 187.503906 131.015625 "/><path style=" stroke:none;fill-rule:evenodd;fill:#7a73d1;fill-opacity:1;" d="M 93.753906 0.00390625 C 135.121094 0.00390625 168.707031 33.589844 168.707031 74.960938 C 168.707031 116.328125 135.121094 149.914062 93.753906 149.914062 Z M 93.753906 0.00390625 "/></g></svg>